<?xml version="1.0" encoding="UTF-8"?>
<svg width="128px" height="128px" viewBox="0 0 128 128" version="1.1" xmlns="http://www.w3.org/2000/svg" xmlns:xlink="http://www.w3.org/1999/xlink">
    <title>Artboard</title>
    <g id="Artboard" stroke="none" stroke-width="1" fill="none" fill-rule="evenodd">
        <rect fill="#398CFE" x="0" y="0" width="128" height="128"></rect>
        <g id="Group-29" transform="translate(17.000000, 17.000000)">
            <polygon id="Path-8" fill="#398CFE" points="6 55.0651051 29.5675098 19 86 55.0651051 63.0217424 89 22.8366585 89"></polygon>
            <path d="M42.0208632,0 C42.8151229,0 43.5754681,0.325364216 44.1282566,0.901788264 C44.8796582,1.54410799 45.2549936,2.52942643 45.1237737,3.51518783 L45.1237737,3.51518783 L45.1230045,13.3569383 C45.1153541,13.9623736 45.0699038,14.556801 45.9124302,14.556801 L45.9124302,14.556801 L66.9734357,14.556801 C67.6487258,14.5917787 68.3015979,14.8132355 68.8610396,15.1970839 C69.355435,15.6553045 69.7514764,16.211242 70.0246311,16.8304586 C73.2051144,22.4492677 76.5019569,28.1072778 79.6695115,33.8175559 C80.264236,34.9021167 80.7167438,35.0197197 81.7639761,34.3663698 C84.4143789,32.719928 87.1552832,31.2041563 89.87033,29.6491835 C91.7837915,28.5646227 93.6196803,28.9304987 94.5376246,30.5246724 C95.0116368,31.3232331 95.1274275,32.2878014 94.8561116,33.1777573 C94.5847958,34.0677132 93.9519551,34.799145 93.1154573,35.1895906 C90.3228378,36.8229654 87.543147,38.4563401 84.7375987,40.0243798 C83.9230847,40.4686578 83.7032952,40.7822657 84.2333758,41.6969556 C86.3666268,45.29038 88.3705899,48.9752734 90.4909121,52.5817648 C91.3662641,53.9020517 91.3662641,55.6258551 90.4909121,56.9461421 C83.5093633,68.9939141 76.5407433,81.0416861 69.5850521,93.0894581 C69.2629487,93.8347306 68.6497937,94.4118645 67.8913801,94.6836319 C67.3007607,94.9391891 66.6565803,95.0424617 66.0167049,94.9841728 L66.0167049,94.9841728 L24.4247744,94.8273688 C24.0342154,94.8052548 23.645515,94.7572391 23.261183,94.6836319 C22.4460463,94.4784172 21.7664544,93.9116405 21.4123654,93.1417261 L21.4123654,93.1417261 L0.53236302,56.3973281 C-0.17745434,55.273783 -0.17745434,53.8359799 0.53236302,52.7124348 L0.53236302,52.7124348 L21.5157958,16.2032428 C21.7995591,15.7864028 22.1541096,15.4236384 22.5630281,15.1317489 C23.0496345,14.7663692 23.6181783,14.52844 24.2179137,14.439198 L24.2179137,14.439198 L38.7240207,14.504533 C39.0343117,10.8457736 38.8015934,7.17394723 38.9179526,3.51518783 C38.8057016,2.53176927 39.1776941,1.55522649 39.9134697,0.901788264 C40.4662582,0.325364216 41.2266034,0 42.0208632,0 Z M28.6783477,27.035784 C28.0060504,26.643774 27.7474745,26.643774 27.3208243,27.3755259 C26.8941741,28.1072778 26.3123784,29.3355756 25.7822978,30.2763994 L25.7822978,30.2763994 L18.3094549,43.3433973 C18.3033996,43.3823594 18.3033996,43.4220381 18.3094549,43.4610003 L18.3094549,43.4610003 L12.5302839,53.3788516 C12.1628334,54.0375742 12.2030834,54.8511793 12.6337143,55.4695713 C17.7535167,64.5293565 22.8991767,73.584786 28.0706944,82.6358598 C28.432395,83.4007659 29.2107395,83.8737929 30.0487999,83.8380236 C40.3142623,83.8815803 50.5711056,83.9338483 60.8193297,83.9948276 C61.8124189,84.0929496 62.7663457,83.5773753 63.2370142,82.6881278 C65.0858318,79.3168424 67.0510085,75.9716909 68.96447,72.6134725 L68.96447,72.6134725 L76.1140931,60.0822215 C76.6700312,59.1675317 77.187183,58.2659088 77.7301924,57.325085 L77.7301924,57.325085 L77.7043348,57.325085 C78.2602729,56.3842612 78.0921986,56.1621222 77.2130406,55.4826383 C67.6629714,49.8986745 58.1172118,44.3103551 48.5757618,38.7176801 C41.9432904,34.8759827 35.2978902,30.9558833 28.6783477,27.035784 Z" id="Shape" fill="#FFFFFF"></path>
        </g>
    </g>
</svg>